<svg xmlns="http://www.w3.org/2000/svg" width="48" height="47" fill="#9b51e0"  xmlns:v="https://vecta.io/nano"><path d="M17.821 28.764a.32.32 0 0 1 .21.214.36.36 0 0 1-.052.322l-4.349 4.447a8.3 8.3 0 0 1-2.41 1.715 7.84 7.84 0 0 1-2.777.75c-.943.071-1.886 0-2.83-.214s-1.799-.661-2.568-1.34a7.87 7.87 0 0 1-2.201-2.733C.32 30.853.04 29.782.005 28.71s.122-2.161.472-3.268a6.9 6.9 0 0 1 1.782-2.893l6.76-6.912c1.083-1.107 2.341-1.929 3.773-2.465a8.41 8.41 0 0 1 4.402-.429c1.328.214 2.375.607 3.144 1.179s1.38 1.232 1.834 1.983c.07.179.061.313-.026.402a1.86 1.86 0 0 1-.288.241 2.55 2.55 0 0 0-.367.322l-.367.375c-.349.393-.769.589-1.258.589s-.934-.205-1.336-.616a4.26 4.26 0 0 0-1.336-.938c-.489-.215-1.03-.304-1.624-.268s-1.118.125-1.572.268-.926.464-1.415.965l-7.755 7.93a4.26 4.26 0 0 0-.996 1.608c-.21.607-.279 1.214-.21 1.822a5.98 5.98 0 0 0 .524 1.822c.279.607.734 1.089 1.362 1.447.873.607 1.817.822 2.83.643s1.869-.607 2.568-1.286l3.354-3.376c.07-.107.175-.125.314-.054a13.08 13.08 0 0 0 3.249.965zM32.388 1.651c.943.75 1.677 1.643 2.201 2.679s.821 2.108.891 3.215-.087 2.215-.472 3.322a7.39 7.39 0 0 1-1.834 2.893l-6.76 6.912a9.68 9.68 0 0 1-3.773 2.411 9.39 9.39 0 0 1-4.454.429c-1.328-.179-2.358-.572-3.092-1.179a9.68 9.68 0 0 1-1.834-1.983c-.07-.143-.052-.268.052-.375l.943-.965c.384-.357.821-.536 1.31-.536a1.7 1.7 0 0 1 1.258.536c.419.429.891.75 1.415.965a4.24 4.24 0 0 0 1.624.321 4.26 4.26 0 0 0 1.624-.321 3.67 3.67 0 0 0 1.362-.965l7.755-7.877a4.2 4.2 0 0 0 .996-1.661c.21-.643.279-1.268.21-1.875s-.262-1.197-.576-1.768-.768-1.054-1.362-1.447a3.82 3.82 0 0 0-2.777-.643c-1.013.143-1.886.589-2.62 1.34l-3.301 3.376c-.105.107-.21.125-.314.054-.978-.429-2.061-.768-3.249-1.018-.14 0-.21-.071-.21-.214s.018-.232.052-.268l4.349-4.447a8.32 8.32 0 0 1 2.41-1.715C25.12.418 26.03.151 26.938.044s1.852-.018 2.83.268a7.63 7.63 0 0 1 2.62 1.34zm-3.711 33.485a.19.19 0 0 1 .126.129c.021.065.01.129-.031.193l-2.61 2.668c-.419.429-.901.772-1.446 1.029a4.72 4.72 0 0 1-1.666.45 5.68 5.68 0 0 1-1.698-.129 3.46 3.46 0 0 1-1.541-.804 4.72 4.72 0 0 1-1.32-1.64c-.314-.643-.482-1.286-.503-1.929a5.84 5.84 0 0 1 .283-1.961 4.14 4.14 0 0 1 1.069-1.736l4.056-4.147a6.14 6.14 0 0 1 2.264-1.479 5.05 5.05 0 0 1 2.641-.257c.797.129 1.425.364 1.886.707s.828.739 1.1 1.19c.042.107.037.188-.016.241a1.21 1.21 0 0 1-.173.145 1.53 1.53 0 0 0-.22.193l-.22.225c-.21.236-.461.354-.755.354s-.561-.123-.802-.37-.508-.434-.802-.563-.618-.182-.975-.161-.671.075-.943.161-.555.279-.849.579l-4.653 4.758c-.273.279-.472.6-.597.964s-.168.729-.126 1.093a3.61 3.61 0 0 0 .314 1.093c.167.364.44.654.817.868a2.2 2.2 0 0 0 1.698.386 2.87 2.87 0 0 0 1.541-.772l2.012-2.025c.042-.064.105-.075.189-.032a7.88 7.88 0 0 0 1.949.579zm8.74-16.268a4.81 4.81 0 0 1 1.32 1.607c.314.621.493 1.265.535 1.929s-.052 1.329-.283 1.993a4.44 4.44 0 0 1-1.1 1.736l-4.056 4.147a5.8 5.8 0 0 1-2.264 1.447c-.86.3-1.75.386-2.672.257-.796-.107-1.415-.343-1.855-.707s-.807-.761-1.1-1.19a.18.18 0 0 1 .031-.225l.566-.579c.231-.214.493-.322.786-.322s.545.107.755.322a2.51 2.51 0 0 0 .849.579 2.55 2.55 0 0 0 1.949 0 2.2 2.2 0 0 0 .817-.579l4.653-4.726a2.52 2.52 0 0 0 .597-.997c.126-.386.168-.761.126-1.125s-.157-.718-.346-1.061-.461-.632-.817-.868a2.29 2.29 0 0 0-1.666-.386 2.67 2.67 0 0 0-1.572.804l-1.981 2.025c-.063.064-.126.075-.189.032-.587-.257-1.237-.461-1.949-.611-.084 0-.126-.043-.126-.129s.011-.139.031-.161l2.609-2.668c.419-.429.901-.772 1.446-1.029s1.09-.418 1.635-.482 1.111-.011 1.698.161a4.58 4.58 0 0 1 1.572.804zm-.241 21.16c.035.012.058.036.07.071s.006.072-.018.107l-1.45 1.482a2.78 2.78 0 0 1-.803.572 2.62 2.62 0 0 1-.926.25 3.16 3.16 0 0 1-.943-.071c-.314-.072-.6-.22-.856-.447a2.62 2.62 0 0 1-1.013-1.983 3.26 3.26 0 0 1 .157-1.09 2.3 2.3 0 0 1 .594-.965l2.253-2.304a3.41 3.41 0 0 1 1.258-.822c.477-.179.967-.226 1.467-.143.442.072.792.202 1.048.393a2.32 2.32 0 0 1 .611.661c.023.059.02.104-.009.134a.63.63 0 0 1-.096.08c-.035.024-.076.06-.122.107l-.122.125a.54.54 0 0 1-.419.197c-.163 0-.312-.069-.445-.205a1.43 1.43 0 0 0-.445-.313 1.15 1.15 0 0 0-.541-.089 2.19 2.19 0 0 0-.524.089c-.151.048-.309.155-.472.322l-2.585 2.643a1.42 1.42 0 0 0-.332.536c-.07.202-.093.405-.07.607a1.96 1.96 0 0 0 .175.607 1.06 1.06 0 0 0 .454.482 1.22 1.22 0 0 0 .943.214c.338-.06.623-.202.856-.429l1.118-1.125c.023-.036.058-.042.105-.018.349.155.71.262 1.083.322zm4.856-9.037c.314.25.559.548.734.893a2.72 2.72 0 0 1 .297 1.072 2.81 2.81 0 0 1-.157 1.107 2.47 2.47 0 0 1-.611.965l-2.253 2.304a3.23 3.23 0 0 1-1.258.804 3.13 3.13 0 0 1-1.485.143c-.443-.059-.786-.191-1.031-.393s-.448-.423-.611-.661c-.023-.048-.017-.089.017-.125l.314-.322c.128-.119.274-.179.437-.179s.303.06.419.179c.14.143.297.25.472.322s.355.107.541.107a1.42 1.42 0 0 0 .541-.107c.174-.071.326-.179.454-.322l2.585-2.626a1.4 1.4 0 0 0 .332-.554 1.46 1.46 0 0 0 .07-.625 1.58 1.58 0 0 0-.192-.589 1.37 1.37 0 0 0-.454-.482 1.27 1.27 0 0 0-.926-.214c-.338.048-.629.197-.873.446l-1.1 1.125c-.035.036-.07.042-.105.018a5.53 5.53 0 0 0-1.083-.339c-.047 0-.07-.024-.07-.072s.006-.077.017-.089l1.45-1.482a2.78 2.78 0 0 1 .803-.572 2.92 2.92 0 0 1 .908-.268c.303-.036.617-.006.943.089a2.53 2.53 0 0 1 .873.447zm1.76 13.899c.021.007.035.021.042.043s.004.043-.011.064l-.87.889a1.66 1.66 0 0 1-.482.343 1.57 1.57 0 0 1-.555.15 1.9 1.9 0 0 1-.566-.043c-.189-.043-.36-.132-.514-.268-.189-.15-.335-.332-.44-.547a1.57 1.57 0 0 1-.168-.643c-.007-.214.025-.432.094-.654a1.38 1.38 0 0 1 .356-.579l1.352-1.382a2.05 2.05 0 0 1 .755-.493 1.68 1.68 0 0 1 .88-.086c.265.043.475.121.629.236a1.4 1.4 0 0 1 .367.396c.014.036.012.063-.005.08a.39.39 0 0 1-.058.048.51.51 0 0 0-.073.064l-.073.075c-.07.079-.154.118-.252.118s-.187-.041-.267-.123a.85.85 0 0 0-.267-.188c-.098-.043-.206-.061-.325-.054s-.224.025-.314.054-.185.093-.283.193l-1.551 1.586a.85.85 0 0 0-.199.322.82.82 0 0 0-.042.364 1.2 1.2 0 0 0 .105.364c.056.121.147.218.273.289a.74.74 0 0 0 .566.129c.203-.035.374-.122.514-.257l.671-.675c.014-.021.035-.025.063-.011.21.093.426.157.65.193zm2.913-5.423c.189.15.335.329.44.536s.164.421.178.643-.018.443-.094.665a1.48 1.48 0 0 1-.367.579l-1.352 1.383a1.94 1.94 0 0 1-.755.482c-.287.1-.583.129-.891.086-.265-.036-.472-.114-.618-.236a2 2 0 0 1-.367-.396c-.014-.029-.011-.054.011-.075l.189-.193c.077-.072.164-.107.262-.107a.34.34 0 0 1 .252.107c.084.086.178.15.283.193a.85.85 0 0 0 .65 0c.105-.043.196-.107.273-.193l1.551-1.575a.84.84 0 0 0 .199-.332c.042-.129.056-.254.042-.375a.96.96 0 0 0-.115-.354.82.82 0 0 0-.272-.289.77.77 0 0 0-.555-.129.89.89 0 0 0-.524.268l-.66.675c-.021.021-.042.025-.063.011a3.32 3.32 0 0 0-.65-.204c-.028 0-.042-.014-.042-.043s.003-.047.011-.054l.87-.889a1.66 1.66 0 0 1 .482-.343 1.76 1.76 0 0 1 .545-.161c.182-.021.37-.003.566.054a1.53 1.53 0 0 1 .524.268z"/></svg>